<?xml version="1.0" standalone="no"?>
<!DOCTYPE svg PUBLIC "-//W3C//DTD SVG 20010904//EN"
 "http://www.w3.org/TR/2001/REC-SVG-20010904/DTD/svg10.dtd">
<svg version="1.0" xmlns="http://www.w3.org/2000/svg"
 width="700.000000pt" height="700.000000pt" viewBox="0 0 700.000000 700.000000"
 preserveAspectRatio="xMidYMid meet">
<metadata>
Created by potrace 1.11, written by Peter Selinger 2001-2013
</metadata>
<g transform="translate(0.000000,700.000000) scale(0.100000,-0.100000)"
fill="#000000" stroke="none">
<path d="M4842 6818 c-101 -15 -207 -89 -250 -175 -11 -21 -70 -164 -132 -318
-61 -154 -118 -294 -126 -312 -8 -17 -14 -34 -14 -38 0 -4 -7 -23 -16 -43 -9
-21 -20 -46 -25 -57 -5 -11 -45 -112 -90 -225 -44 -113 -87 -218 -94 -235 -7
-16 -115 -286 -240 -600 -125 -313 -233 -583 -240 -600 -7 -16 -25 -61 -40
-100 -15 -38 -31 -79 -36 -90 -60 -140 -105 -265 -95 -266 22 -3 293 10 346
16 19 2 71 7 115 10 146 12 179 15 260 25 566 75 913 273 1301 745 23 28 186
244 363 480 177 237 328 438 336 448 39 46 97 139 111 178 23 64 21 172 -5
237 -71 178 -267 268 -443 202 -84 -31 -128 -69 -215 -186 -12 -16 -52 -70
-90 -120 -37 -50 -76 -102 -86 -115 -75 -101 -770 -1027 -780 -1039 -7 -8 -23
-31 -37 -50 -13 -19 -27 -37 -30 -40 -3 -3 -23 -30 -45 -60 -22 -30 -42 -57
-45 -60 -4 -3 -21 -26 -38 -52 -27 -39 -68 -82 -50 -52 3 5 60 146 127 314 67
168 126 314 131 325 5 11 113 281 240 600 127 319 235 589 240 600 86 191 109
297 83 395 -44 173 -213 284 -391 258z"/>
<path d="M3277 5074 c-1 -1 -81 -4 -177 -8 -161 -6 -200 -8 -331 -20 -143 -14
-306 -34 -399 -51 -14 -2 -41 -6 -60 -9 -30 -4 -199 -37 -265 -51 -125 -27
-434 -120 -502 -151 -17 -8 -34 -14 -37 -14 -3 0 -52 -21 -108 -46 -351 -157
-585 -357 -669 -573 -22 -55 -22 -67 -23 -491 0 -392 6 -594 18 -632 3 -7 7
-42 10 -78 3 -36 10 -87 15 -115 5 -27 12 -70 15 -95 14 -102 72 -347 135
-565 71 -249 213 -579 339 -790 52 -87 198 -305 211 -315 4 -3 29 -32 56 -65
129 -156 320 -329 497 -448 252 -170 656 -319 955 -353 26 -3 61 -7 76 -10 55
-9 174 -15 317 -15 205 0 338 11 510 41 30 6 69 13 85 16 59 10 244 64 341 99
167 61 461 217 559 297 5 4 46 36 90 70 225 174 475 468 654 767 265 443 486
1095 547 1611 3 30 9 60 12 65 10 16 10 889 1 942 -13 71 -82 200 -142 267
l-54 58 -75 -96 c-374 -477 -743 -747 -1210 -886 -56 -17 -116 -33 -133 -36
-16 -2 -38 -7 -47 -10 -22 -6 -53 -12 -103 -19 -22 -3 -47 -8 -55 -10 -8 -2
-37 -6 -65 -10 -27 -3 -61 -8 -75 -10 -40 -6 -140 -16 -310 -29 -311 -26 -782
-26 -930 -1 -14 2 -52 7 -85 10 -150 16 -316 44 -535 91 -14 3 -88 23 -166 44
-368 101 -691 251 -826 384 -74 74 -69 120 25 200 197 170 661 350 1137 440
14 3 34 7 45 9 11 3 40 8 65 12 25 4 52 9 60 10 96 17 303 38 485 50 49 3 90
7 91 8 5 8 195 490 197 499 1 8 -23 12 -81 12 -46 1 -84 0 -85 0z"/>
</g>
</svg>
